/* XPM */
static char *wxzphoto_xpm[] = {
/* columns rows colors chars-per-pixel */
"16 16 10 1",
"  c #3705FF",
". c #4E21FF",
"X c #643DFF",
"o c #7A58FF",
"O c #9075FF",
"+ c #A690FF",
"@ c #BCACFF",
"# c #D3C8FF",
"$ c #E9E4FF",
"% c gray100",
/* pixels */
"%%%%%%%%%%%%%%%%",
"%%%+ooooooooo+%%",
"%%%o         o%%",
"%%%#@@@@@@o  @%%",
"%%%%%%%%%$. +%%%",
"%%%%%%%%$. o%%%%",
"%%%%%%%%o X%%%%%",
"%%%%%%%O .$%%%%%",
"%%%%%%@  #%%%%%%",
"%%%%%$  @%%%%%%%",
"%%%%$. O%%%%%%%%",
"%%%%X o%%%%%%%%%",
"%%%o  +@@@@@@@%%",
"%%%           %%",
"%%%ooooooooooo%%",
"%%%%%%%%%%%%%%%%"
};
